<svg width="459" height="630" viewBox="0 0 459 630" fill="none" xmlns="http://www.w3.org/2000/svg">
<g opacity="0.2">
<path d="M457.527 436.994C458.048 435.43 456.56 433.943 454.997 434.464L450.732 435.885C449.322 436.356 448.899 438.146 449.95 439.197L452.794 442.04C453.845 443.091 455.635 442.669 456.105 441.258L457.527 436.994Z" fill="#2FB95D"/>
<path d="M396.55 497.97C397.072 496.406 395.584 494.919 394.021 495.44L387.193 497.716C385.782 498.186 385.36 499.976 386.411 501.028L390.963 505.58C392.014 506.631 393.804 506.208 394.274 504.798L396.55 497.97Z" fill="#2FB95D"/>
<path d="M334.72 559.801C335.241 558.237 333.753 556.75 332.19 557.271L325.362 559.547C323.951 560.017 323.529 561.807 324.58 562.858L329.132 567.41C330.183 568.462 331.974 568.039 332.444 566.629L334.72 559.801Z" fill="#2FB95D"/>
<path d="M272.035 622.486C272.556 620.922 271.068 619.435 269.505 619.956L265.24 621.378C263.829 621.848 263.407 623.638 264.458 624.689L267.301 627.532C268.353 628.584 270.143 628.161 270.613 626.751L272.035 622.486Z" fill="#2FB95D"/>
<path d="M458.381 312.478C458.902 310.914 457.415 309.427 455.851 309.948L449.023 312.224C447.613 312.694 447.19 314.484 448.242 315.536L452.794 320.087C453.845 321.139 455.635 320.716 456.105 319.306L458.381 312.478Z" fill="#2FB95D"/>
<path d="M398.259 372.6C398.78 371.036 397.293 369.549 395.729 370.07L383.775 374.055C382.365 374.525 381.942 376.315 382.993 377.366L390.963 385.336C392.014 386.387 393.804 385.964 394.274 384.554L398.259 372.6Z" fill="#2FB95D"/>
<path d="M338.16 432.699C338.681 431.136 337.193 429.648 335.63 430.169L318.482 435.885C317.071 436.356 316.649 438.146 317.7 439.197L329.132 450.629C330.183 451.68 331.974 451.258 332.444 449.847L338.16 432.699Z" fill="#2FB95D"/>
<path d="M276.329 494.53C276.85 492.966 275.363 491.479 273.799 492L256.651 497.716C255.241 498.186 254.818 499.976 255.869 501.028L267.301 512.46C268.353 513.511 270.143 513.088 270.613 511.678L276.329 494.53Z" fill="#2FB95D"/>
<path d="M212.767 558.092C213.288 556.528 211.801 555.041 210.237 555.562L198.283 559.547C196.872 560.017 196.45 561.807 197.501 562.858L205.471 570.828C206.522 571.879 208.312 571.457 208.782 570.046L212.767 558.092Z" fill="#2FB95D"/>
<path d="M149.227 621.631C149.749 620.068 148.261 618.58 146.698 619.102L139.87 621.378C138.459 621.848 138.037 623.638 139.088 624.689L143.64 629.241C144.691 630.292 146.481 629.87 146.951 628.459L149.227 621.631Z" fill="#2FB95D"/>
<path d="M457.527 189.671C458.048 188.107 456.56 186.62 454.997 187.141L450.732 188.563C449.322 189.033 448.899 190.823 449.95 191.874L452.794 194.717C453.845 195.769 455.635 195.346 456.105 193.936L457.527 189.671Z" fill="#2FB95D"/>
<path d="M398.259 248.938C398.78 247.375 397.293 245.887 395.729 246.408L383.775 250.393C382.365 250.863 381.942 252.653 382.993 253.705L390.963 261.674C392.014 262.726 393.804 262.303 394.274 260.893L398.259 248.938Z" fill="#2FB95D"/>
<path d="M339.014 308.183C339.535 306.62 338.048 305.132 336.484 305.654L316.773 312.224C315.363 312.694 314.94 314.484 315.991 315.536L329.132 328.676C330.183 329.728 331.974 329.305 332.444 327.895L339.014 308.183Z" fill="#2FB95D"/>
<path d="M279.747 367.451C280.268 365.887 278.78 364.4 277.217 364.921L249.816 374.055C248.405 374.525 247.983 376.315 249.034 377.366L267.301 395.633C268.353 396.685 270.143 396.262 270.613 394.852L279.747 367.451Z" fill="#2FB95D"/>
<path d="M217.916 429.282C218.437 427.718 216.95 426.231 215.386 426.752L187.985 435.885C186.575 436.356 186.152 438.146 187.203 439.197L205.471 457.464C206.522 458.515 208.312 458.093 208.782 456.682L217.916 429.282Z" fill="#2FB95D"/>
<path d="M153.522 493.675C154.043 492.112 152.556 490.624 150.992 491.146L131.281 497.716C129.87 498.186 129.448 499.976 130.499 501.028L143.64 514.168C144.691 515.22 146.481 514.797 146.951 513.387L153.522 493.675Z" fill="#2FB95D"/>
<path d="M89.1055 558.092C89.6267 556.528 88.1392 555.041 86.5757 555.562L74.6214 559.547C73.211 560.017 72.7884 561.807 73.8397 562.858L81.8092 570.828C82.8605 571.879 84.6506 571.457 85.1208 570.046L89.1055 558.092Z" fill="#2FB95D"/>
<path d="M24.7116 622.486C25.2328 620.922 23.7453 619.435 22.1818 619.956L17.917 621.378C16.5066 621.848 16.0839 623.638 17.1352 624.689L19.9785 627.532C21.0298 628.584 22.8199 628.161 23.29 626.751L24.7116 622.486Z" fill="#2FB95D"/>
<path d="M396.55 126.986C397.072 125.422 395.584 123.935 394.021 124.456L387.193 126.732C385.782 127.202 385.36 128.992 386.411 130.043L390.963 134.595C392.014 135.647 393.804 135.224 394.274 133.814L396.55 126.986Z" fill="#2FB95D"/>
<path d="M338.16 185.376C338.681 183.813 337.193 182.325 335.63 182.846L318.482 188.562C317.071 189.033 316.649 190.823 317.7 191.874L329.132 203.306C330.183 204.357 331.974 203.935 332.444 202.524L338.16 185.376Z" fill="#2FB95D"/>
<path d="M279.747 243.789C280.268 242.226 278.78 240.738 277.217 241.26L249.816 250.393C248.405 250.863 247.983 252.653 249.034 253.705L267.301 271.972C268.353 273.023 270.143 272.601 270.613 271.19L279.747 243.789Z" fill="#2FB95D"/>
<path d="M221.356 302.18C221.877 300.617 220.39 299.129 218.826 299.65L181.105 312.224C179.695 312.694 179.272 314.484 180.323 315.536L205.471 340.683C206.522 341.734 208.312 341.311 208.782 339.901L221.356 302.18Z" fill="#2FB95D"/>
<path d="M159.525 364.011C160.046 362.447 158.559 360.96 156.995 361.481L119.274 374.055C117.864 374.525 117.441 376.315 118.493 377.366L143.64 402.513C144.691 403.565 146.481 403.142 146.951 401.732L159.525 364.011Z" fill="#2FB95D"/>
<path d="M94.2544 429.282C94.7755 427.718 93.288 426.231 91.7245 426.752L64.3238 435.885C62.9134 436.356 62.4907 438.146 63.542 439.197L81.8092 457.464C82.8605 458.515 84.6506 458.093 85.1208 456.682L94.2544 429.282Z" fill="#2FB95D"/>
<path d="M29.006 494.53C29.5272 492.966 28.0397 491.479 26.4762 492L9.32818 497.716C7.91772 498.186 7.49511 499.976 8.54641 501.028L19.9785 512.46C21.0298 513.511 22.8199 513.088 23.29 511.678L29.006 494.53Z" fill="#2FB95D"/>
<path d="M-36.2647 559.801C-35.7435 558.237 -37.231 556.75 -38.7945 557.271L-45.6225 559.547C-47.0329 560.017 -47.4555 561.807 -46.4042 562.858L-41.8523 567.41C-40.801 568.462 -39.0108 568.039 -38.5407 566.629L-36.2647 559.801Z" fill="#2FB95D"/>
<path d="M334.72 65.1549C335.241 63.5914 333.753 62.1039 332.19 62.6251L325.362 64.901C323.951 65.3712 323.529 67.1613 324.58 68.2126L329.132 72.7646C330.183 73.8159 331.974 73.3933 332.444 71.9828L334.72 65.1549Z" fill="#2FB95D"/>
<path d="M276.329 123.546C276.85 121.982 275.363 120.495 273.799 121.016L256.651 126.732C255.241 127.202 254.818 128.992 255.869 130.043L267.301 141.475C268.353 142.527 270.143 142.104 270.613 140.694L276.329 123.546Z" fill="#2FB95D"/>
<path d="M217.916 181.959C218.437 180.395 216.95 178.908 215.386 179.429L187.985 188.562C186.575 189.033 186.152 190.823 187.203 191.874L205.471 210.141C206.522 211.193 208.312 210.77 208.782 209.359L217.916 181.959Z" fill="#2FB95D"/>
<path d="M159.525 240.349C160.046 238.786 158.559 237.298 156.995 237.82L119.274 250.393C117.864 250.863 117.441 252.653 118.493 253.705L143.64 278.852C144.691 279.903 146.481 279.481 146.951 278.07L159.525 240.349Z" fill="#2FB95D"/>
<path d="M97.6944 302.18C98.2156 300.617 96.7281 299.129 95.1646 299.65L57.4437 312.224C56.0333 312.694 55.6107 314.484 56.662 315.536L81.8092 340.683C82.8605 341.734 84.6506 341.311 85.1208 339.901L97.6944 302.18Z" fill="#2FB95D"/>
<path d="M32.4237 367.451C32.9448 365.887 31.4574 364.4 29.8938 364.921L2.4931 374.055C1.08264 374.525 0.660031 376.315 1.71133 377.366L19.9785 395.633C21.0298 396.685 22.8199 396.262 23.2901 394.852L32.4237 367.451Z" fill="#2FB95D"/>
<path d="M-32.8247 432.699C-32.3035 431.136 -33.791 429.648 -35.3545 430.169L-52.5026 435.885C-53.9131 436.356 -54.3357 438.146 -53.2843 439.197L-41.8523 450.629C-40.801 451.68 -39.0108 451.258 -38.5407 449.847L-32.8247 432.699Z" fill="#2FB95D"/>
<path d="M-98.0954 497.97C-97.5742 496.406 -99.0617 494.919 -100.625 495.44L-107.453 497.716C-108.864 498.186 -109.286 499.976 -108.235 501.028L-103.683 505.58C-102.632 506.631 -100.842 506.208 -100.371 504.798L-98.0954 497.97Z" fill="#2FB95D"/>
<path d="M272.035 4.17852C272.556 2.61501 271.068 1.12753 269.505 1.64871L265.24 3.07031C263.829 3.54046 263.407 5.33058 264.458 6.38189L267.301 9.22508C268.353 10.2764 270.143 9.85379 270.613 8.44332L272.035 4.17852Z" fill="#2FB95D"/>
<path d="M212.767 63.4461C213.288 61.8826 211.801 60.3951 210.237 60.9163L198.283 64.901C196.872 65.3712 196.45 67.1613 197.501 68.2126L205.471 76.1821C206.522 77.2334 208.312 76.8108 208.782 75.4004L212.767 63.4461Z" fill="#2FB95D"/>
<path d="M153.522 122.691C154.043 121.128 152.556 119.64 150.992 120.161L131.281 126.732C129.87 127.202 129.448 128.992 130.499 130.043L143.64 143.184C144.691 144.235 146.481 143.813 146.951 142.402L153.522 122.691Z" fill="#2FB95D"/>
<path d="M94.2544 181.959C94.7755 180.395 93.288 178.908 91.7245 179.429L64.3238 188.562C62.9133 189.033 62.4907 190.823 63.542 191.874L81.8092 210.141C82.8605 211.193 84.6506 210.77 85.1208 209.359L94.2544 181.959Z" fill="#2FB95D"/>
<path d="M32.4236 243.789C32.9448 242.226 31.4574 240.738 29.8938 241.26L2.4931 250.393C1.08264 250.863 0.660031 252.653 1.71133 253.705L19.9785 271.972C21.0298 273.023 22.8199 272.601 23.2901 271.19L32.4236 243.789Z" fill="#2FB95D"/>
<path d="M-31.9702 308.183C-31.4491 306.62 -32.9365 305.132 -34.5001 305.654L-54.2113 312.224C-55.6217 312.694 -56.0443 314.484 -54.993 315.536L-41.8522 328.676C-40.8009 329.728 -39.0108 329.305 -38.5406 327.895L-31.9702 308.183Z" fill="#2FB95D"/>
<path d="M-96.3867 372.6C-95.8655 371.036 -97.3529 369.549 -98.9165 370.07L-110.871 374.055C-112.281 374.525 -112.704 376.315 -111.653 377.366L-103.683 385.336C-102.632 386.387 -100.842 385.964 -100.371 384.554L-96.3867 372.6Z" fill="#2FB95D"/>
<path d="M-160.781 436.994C-160.259 435.43 -161.747 433.943 -163.31 434.464L-167.575 435.885C-168.986 436.356 -169.408 438.146 -168.357 439.197L-165.514 442.04C-164.462 443.091 -162.672 442.669 -162.202 441.258L-160.781 436.994Z" fill="#2FB95D"/>
<path d="M149.227 3.32415C149.749 1.76064 148.261 0.273159 146.698 0.794332L139.87 3.07032C138.459 3.54047 138.037 5.33059 139.088 6.3819L143.64 10.9339C144.691 11.9852 146.481 11.5626 146.951 10.1521L149.227 3.32415Z" fill="#2FB95D"/>
<path d="M89.1055 63.4461C89.6267 61.8826 88.1392 60.3951 86.5757 60.9163L74.6214 64.901C73.211 65.3712 72.7884 67.1613 73.8397 68.2126L81.8092 76.1821C82.8605 77.2334 84.6506 76.8108 85.1208 75.4004L89.1055 63.4461Z" fill="#2FB95D"/>
<path d="M29.006 123.546C29.5272 121.982 28.0397 120.495 26.4762 121.016L9.32818 126.732C7.91772 127.202 7.49511 128.992 8.54641 130.043L19.9785 141.475C21.0298 142.527 22.8199 142.104 23.29 140.694L29.006 123.546Z" fill="#2FB95D"/>
<path d="M-32.8247 185.376C-32.3035 183.813 -33.791 182.325 -35.3545 182.846L-52.5026 188.562C-53.9131 189.033 -54.3357 190.823 -53.2843 191.874L-41.8523 203.306C-40.801 204.357 -39.0108 203.935 -38.5407 202.524L-32.8247 185.376Z" fill="#2FB95D"/>
<path d="M-96.3867 248.938C-95.8655 247.375 -97.3529 245.887 -98.9165 246.408L-110.871 250.393C-112.281 250.863 -112.704 252.653 -111.653 253.705L-103.683 261.674C-102.632 262.726 -100.842 262.303 -100.371 260.893L-96.3867 248.938Z" fill="#2FB95D"/>
<path d="M-159.926 312.478C-159.405 310.914 -160.892 309.427 -162.456 309.948L-169.284 312.224C-170.694 312.694 -171.117 314.484 -170.066 315.536L-165.514 320.087C-164.462 321.139 -162.672 320.716 -162.202 319.306L-159.926 312.478Z" fill="#2FB95D"/>
<path d="M24.7116 4.17853C25.2328 2.61501 23.7453 1.12753 22.1818 1.6487L17.917 3.0703C16.5066 3.54046 16.0839 5.33058 17.1352 6.38188L19.9785 9.22508C21.0298 10.2764 22.8199 9.85379 23.29 8.44332L24.7116 4.17853Z" fill="#2FB95D"/>
<path d="M-36.2647 65.1549C-35.7435 63.5914 -37.231 62.1039 -38.7945 62.6251L-45.6225 64.901C-47.0329 65.3712 -47.4555 67.1613 -46.4042 68.2126L-41.8523 72.7646C-40.801 73.8159 -39.0108 73.3933 -38.5407 71.9828L-36.2647 65.1549Z" fill="#2FB95D"/>
<path d="M-98.0954 126.986C-97.5742 125.422 -99.0617 123.935 -100.625 124.456L-107.453 126.732C-108.864 127.202 -109.286 128.992 -108.235 130.043L-103.683 134.595C-102.632 135.647 -100.842 135.224 -100.371 133.814L-98.0954 126.986Z" fill="#2FB95D"/>
<path d="M-160.781 189.671C-160.259 188.107 -161.747 186.62 -163.31 187.141L-167.575 188.562C-168.986 189.033 -169.408 190.823 -168.357 191.874L-165.514 194.717C-164.462 195.769 -162.672 195.346 -162.202 193.936L-160.781 189.671Z" fill="#2FB95D"/>
</g>
</svg>
