<svg
  width="427"
  height="393"
  viewBox="0 0 427 393"
  fill="none"
  xmlns="http://www.w3.org/2000/svg"
  className=""
>
  <path
    d="M292.081 50.65C264.899 38.2677 234.657 34.2206 205.176 39.0203C175.696 43.8199 148.299 57.2509 126.449 77.6159C104.599 97.9809 89.2758 124.366 82.4164 153.437C75.5569 182.507 77.4688 212.959 87.9104 240.944C89.6607 245.637 89.4747 250.834 87.3933 255.391C85.312 259.947 81.5058 263.49 76.8121 265.241C72.1184 266.991 66.9216 266.805 62.365 264.723C57.8084 262.642 54.2653 258.836 52.5151 254.142C43.8301 230.939 39.809 206.251 40.6821 181.491C41.5553 156.731 47.3056 132.388 57.6035 109.854C100.837 14.9391 212.822 -26.9544 307.737 16.2792C402.652 59.5128 444.545 171.497 401.312 266.412C391.07 288.972 376.478 309.288 358.371 326.198C340.263 343.107 318.998 356.278 295.792 364.954C291.102 366.714 285.905 366.539 281.344 364.468C276.783 362.396 273.231 358.597 271.471 353.907C269.711 349.217 269.886 344.02 271.958 339.459C274.029 334.898 277.828 331.347 282.518 329.587C310.485 319.097 334.714 300.553 352.145 276.297C369.575 252.042 379.424 223.163 380.448 193.312C381.471 163.46 373.623 133.975 357.894 108.583C342.166 83.1906 319.263 63.0304 292.081 50.65Z"
    fill="url(#paint0_linear_1_2782)"
    fill-opacity="0.5"
  />
  <path
    d="M245.115 153.761C235.999 149.609 225.608 149.248 216.226 152.758C206.844 156.267 199.241 163.36 195.088 172.476C190.936 181.592 190.575 191.983 194.085 201.365C197.595 210.747 204.688 218.35 213.803 222.503C222.919 226.655 233.311 227.016 242.693 223.506C252.075 219.996 259.678 212.903 263.83 203.788C267.982 194.672 268.343 184.28 264.833 174.898C261.324 165.516 254.231 157.913 245.115 153.761Z"
    fill="url(#paint1_linear_1_2782)"
    fill-opacity="0.5"
  />
  <path
    d="M160.716 156.817C165.864 145.511 173.72 135.648 183.59 128.103C193.46 120.558 205.038 115.564 217.299 113.564C229.561 111.563 242.126 112.617 253.882 116.633C265.639 120.649 276.223 127.502 284.698 136.586C293.172 145.67 299.276 156.704 302.467 168.711C305.658 180.717 305.839 193.325 302.993 205.418C300.147 217.511 294.363 228.715 286.152 238.038C277.941 247.362 267.557 254.516 255.921 258.867C253.597 259.736 251.467 261.055 249.653 262.747C247.838 264.44 246.375 266.473 245.346 268.731C244.318 270.99 243.744 273.428 243.658 275.908C243.572 278.388 243.975 280.86 244.844 283.184C246.6 287.878 250.149 291.681 254.709 293.759C256.967 294.787 259.406 295.361 261.886 295.447C264.365 295.533 266.838 295.13 269.162 294.261C290.151 286.409 308.341 272.51 321.431 254.32C334.522 236.131 341.924 214.468 342.702 192.072C343.48 169.675 337.6 147.551 325.804 128.496C314.008 109.442 296.826 94.3138 276.432 85.0244C256.038 75.735 233.348 72.7018 211.23 76.3084C189.112 79.915 168.56 89.9994 152.174 105.286C135.787 120.573 124.302 140.376 119.17 162.191C114.038 184.005 115.491 206.852 123.344 227.841C124.214 230.164 125.532 232.292 127.225 234.106C128.918 235.919 130.951 237.381 133.209 238.408C135.466 239.435 137.904 240.008 140.383 240.093C142.862 240.179 145.333 239.775 147.656 238.905C149.979 238.035 152.108 236.716 153.921 235.023C155.734 233.331 157.196 231.298 158.224 229.04C159.251 226.782 159.824 224.344 159.909 221.865C159.994 219.386 159.59 216.915 158.72 214.592C155.227 205.306 153.605 195.421 153.948 185.505C154.29 175.59 156.591 165.84 160.716 156.817Z"
    fill="url(#paint2_linear_1_2782)"
    fill-opacity="0.5"
  />
  <defs>
    <linearGradient
      id="paint0_linear_1_2782"
      x1="307.737"
      y1="16.2792"
      x2="171.854"
      y2="314.596"
      gradientUnits="userSpaceOnUse"
    >
      <stop stop-color="white" />
      <stop offset="1" stop-color="white" stop-opacity="0" />
    </linearGradient>
    <linearGradient
      id="paint1_linear_1_2782"
      x1="245.115"
      y1="153.761"
      x2="213.803"
      y2="222.503"
      gradientUnits="userSpaceOnUse"
    >
      <stop stop-color="white" />
      <stop offset="1" stop-color="white" stop-opacity="0" />
    </linearGradient>
    <linearGradient
      id="paint2_linear_1_2782"
      x1="276.432"
      y1="85.0244"
      x2="193.959"
      y2="266.087"
      gradientUnits="userSpaceOnUse"
    >
      <stop stop-color="white" />
      <stop offset="1" stop-color="white" stop-opacity="0" />
    </linearGradient>
  </defs>
</svg>