<svg width="233" height="184" viewBox="0 0 233 184" fill="none" xmlns="http://www.w3.org/2000/svg">
<path d="M89.8045 0C75.1283 0 63.0393 10.3883 63.0393 23V38.3333H80.8828V23C80.8828 18.6837 84.7815 15.3333 89.8045 15.3333H143.335C148.358 15.3333 152.256 18.6837 152.256 23V38.3333H170.1V23C170.1 10.3883 158.011 0 143.335 0H89.8045ZM27.3525 46C20.254 46 13.4462 48.4232 8.42672 52.7365C3.40729 57.0499 0.587402 62.9 0.587402 69L0.587402 161C0.587402 167.1 3.40729 172.95 8.42672 177.263C13.4462 181.577 20.254 184 27.3525 184H205.787C220.561 184 232.552 173.696 232.552 161V69C232.552 62.9 229.732 57.0499 224.712 52.7365C219.693 48.4232 212.885 46 205.787 46H27.3525ZM116.57 68.2793C123.711 68.2743 130.784 69.4793 137.383 71.8255C143.982 74.1716 149.977 77.6128 155.027 81.9523C160.077 86.2917 164.082 91.4441 166.812 97.1148C169.542 102.785 170.944 108.863 170.938 115C170.944 121.137 169.542 127.215 166.812 132.885C164.082 138.556 160.077 143.708 155.027 148.048C149.977 152.387 143.982 155.828 137.383 158.175C130.784 160.521 123.711 161.726 116.57 161.721C109.428 161.726 102.356 160.521 95.7566 158.175C89.1576 155.828 83.1617 152.387 78.1119 148.048C73.0621 143.708 69.0575 138.556 66.3273 132.885C63.5971 127.215 62.1948 121.137 62.2007 115C62.1948 108.863 63.5971 102.785 66.3273 97.1148C69.0575 91.4441 73.0621 86.2917 78.1119 81.9523C83.1617 77.6128 89.1576 74.1716 95.7566 71.8255C102.356 69.4793 109.428 68.2743 116.57 68.2793ZM107.648 92V107.333H89.8045V122.667H107.648V138H125.491V122.667H143.335V107.333H125.491V92H107.648Z" fill="#78C7F4"/>
</svg>
