<svg width="221" height="194" viewBox="0 0 221 194" fill="none" xmlns="http://www.w3.org/2000/svg">
<path d="M194.589 175.304H32.269C31.2614 175.304 30.295 174.953 29.5825 174.327C28.87 173.702 28.4697 172.853 28.4697 171.969V29.4797C28.4697 28.5951 28.87 27.7468 29.5825 27.1214C30.295 26.4959 31.2614 26.1445 32.269 26.1445H125.504L198.388 90.1244V171.969C198.388 172.407 198.29 172.84 198.099 173.245C197.908 173.65 197.628 174.017 197.275 174.327C196.923 174.637 196.504 174.882 196.043 175.05C195.582 175.218 195.088 175.304 194.589 175.304Z" fill="#69FFD2"/>
<path d="M104.829 63.809H54.3897C51.5352 63.809 49.2212 61.7777 49.2212 59.2719C49.2212 56.7662 51.5352 54.7349 54.3897 54.7349H104.829C107.684 54.7349 109.998 56.7662 109.998 59.2719C109.998 61.7777 107.684 63.809 104.829 63.809ZM109.998 88.9687C109.998 86.463 107.684 84.4317 104.829 84.4317H54.3897C51.5352 84.4317 49.2212 86.463 49.2212 88.9687C49.2212 91.4744 51.5352 93.5057 54.3897 93.5057H104.829C107.684 93.5054 109.998 91.4744 109.998 88.9687ZM109.998 118.665C109.998 116.16 107.684 114.128 104.829 114.128H54.3897C51.5352 114.128 49.2212 116.159 49.2212 118.665C49.2212 121.171 51.5352 123.202 54.3897 123.202H104.829C107.684 123.202 109.998 121.17 109.998 118.665ZM153.665 148.362C153.665 145.856 151.351 143.825 148.496 143.825H54.3897C51.5352 143.825 49.2212 145.856 49.2212 148.362C49.2212 150.867 51.5352 152.899 54.3897 152.899H148.496C151.351 152.898 153.665 150.867 153.665 148.362ZM171.075 118.665C171.075 116.16 168.761 114.128 165.906 114.128H131.087C128.233 114.128 125.918 116.159 125.918 118.665C125.918 121.171 128.232 123.202 131.087 123.202H165.906C168.761 123.202 171.075 121.17 171.075 118.665Z" fill="#597B91"/>
<path d="M125.504 26.1445L198.388 90.1244H140.996C132.44 90.1244 125.504 84.0357 125.504 76.525V26.1445Z" fill="#36C3FF"/>
</svg>
