<svg width="227" height="215" viewBox="0 0 227 215" fill="none" xmlns="http://www.w3.org/2000/svg">
<path d="M31.716 16.3666C32.7267 16.3573 33.7256 16.1445 34.6558 15.7405C35.5859 15.3364 36.429 14.749 37.1367 14.0118C37.8445 13.2746 38.4032 12.4022 38.7807 11.4442C39.1583 10.4863 39.3473 9.46176 39.3371 8.42914C39.3371 4.04764 35.9189 0.491638 31.716 0.491638H23.7997L16.031 8.42914L23.7997 16.3666H31.716ZM124.793 136.223C124.793 111.617 140.889 95.6067 163.636 95.7417C186.942 95.8846 202.479 113.053 202.479 135.429V151.344H186.942V135.429C186.942 118.086 179.173 111.617 163.636 111.617C147.353 111.617 140.33 118.872 140.33 135.429V164.179C140.33 192.127 120.263 214.804 93.7179 214.804C67.1723 214.804 47.1058 192.047 47.1058 164.179V127.055C17.8178 123.658 0.493652 100.861 0.555801 67.9604L0.548033 67.246C0.524727 66.3729 0.493652 64.9203 0.493652 63.9917L8.26234 56.0542C8.26234 56.0542 16.0621 64.6664 16.0621 63.9917C16.1786 95.7417 31.6305 111.617 54.9055 111.617C78.1805 111.617 93.7179 95.7417 93.7179 63.9917C93.7179 65.0712 101.487 56.0542 101.487 56.0542L109.255 63.9917V67.9604C109.255 100.877 91.9622 123.682 62.6431 127.055V164.179C62.6431 182.316 76.4869 198.929 93.7179 198.929C110.949 198.929 124.793 182.316 124.793 164.179V136.223ZM70.4118 8.42914C70.4118 12.8106 73.83 16.3666 78.0329 16.3666H85.9492L93.7179 8.42914L85.9492 0.491638H78.0329C77.0222 0.500973 76.0233 0.713751 75.0932 1.11781C74.163 1.52186 73.32 2.10928 72.6122 2.84646C71.9044 3.58364 71.3457 4.45613 70.9682 5.41405C70.5906 6.37196 70.4016 7.39652 70.4118 8.42914Z" fill="#635994"/>
<path d="M21.4769 0.491638H24.7238V19.9746H20.6854C16.7763 19.9746 16.6471 22.41 16.6471 24.8453V78.4235H0.493677V25.9266C0.485087 19.1996 2.68971 12.7433 6.62369 7.97469C10.5577 3.20609 15.8996 0.514854 21.4769 0.491638ZM202.411 214.804C205.593 214.804 208.744 214.048 211.684 212.58C214.623 211.111 217.294 208.958 219.544 206.245C221.794 203.531 223.579 200.309 224.797 196.764C226.014 193.218 226.641 189.418 226.641 185.58C226.641 181.742 226.014 177.942 224.797 174.396C223.579 170.85 221.794 167.629 219.544 164.915C217.294 162.201 214.623 160.049 211.684 158.58C208.744 157.111 205.593 156.355 202.411 156.355C195.985 156.355 189.822 159.434 185.278 164.915C180.734 170.396 178.181 177.829 178.181 185.58C178.181 193.331 180.734 200.764 185.278 206.245C189.822 211.725 195.985 214.804 202.411 214.804ZM89.3373 0.491638H92.5842C98.1616 0.514854 103.503 3.20609 107.437 7.97469C111.371 12.7433 113.576 19.1996 113.567 25.9266V78.4235H97.414V24.8453C97.414 22.41 97.2848 19.9746 93.3757 19.9746H89.3373V0.491638Z" fill="#00A6ED"/>
<path d="M194.713 163.21C197.803 163.21 200.767 161.956 202.953 159.723C205.138 157.49 206.366 154.462 206.366 151.304C206.366 148.146 205.138 145.118 202.953 142.885C200.767 140.652 197.803 139.398 194.713 139.398C191.622 139.398 188.658 140.652 186.473 142.885C184.287 145.118 183.06 148.146 183.06 151.304C183.06 154.462 184.287 157.49 186.473 159.723C188.658 161.956 191.622 163.21 194.713 163.21Z" fill="#3F5FFF"/>
</svg>
